<svg xmlns="http://www.w3.org/2000/svg" xmlns:xlink="http://www.w3.org/1999/xlink" width="300" zoomAndPan="magnify" viewBox="0 0 224.87999 122.249994" height="163" preserveAspectRatio="xMidYMid meet" version="1.0"><defs><clipPath id="b739464d52"><path d="M 1.8125 1.382812 L 106.171875 1.382812 L 106.171875 121.394531 L 1.8125 121.394531 Z M 1.8125 1.382812 " clip-rule="nonzero"/></clipPath><clipPath id="33987d20bf"><path d="M 114 1.382812 L 222.738281 1.382812 L 222.738281 121.394531 L 114 121.394531 Z M 114 1.382812 " clip-rule="nonzero"/></clipPath></defs><g clip-path="url(#b739464d52)"><path fill="#ffffff" d="M 85.476562 82.261719 C 84.324219 82.261719 83.355469 83.027344 82.980469 84.117188 C 79.335938 94.683594 69.140625 100.523438 56.011719 100.523438 C 36.878906 100.523438 25.304688 86.054688 25.304688 61.351562 C 25.304688 36.722656 36.878906 22.253906 55.933594 22.253906 C 69.367188 22.253906 79.785156 29.242188 83.210938 41.152344 C 83.542969 42.300781 84.542969 43.125 85.734375 43.125 C 85.734375 43.125 100.167969 43.132812 104.84375 43.125 C 105.628906 43.125 106.242188 42.429688 106.140625 41.652344 C 103.082031 18.265625 82.09375 1.382812 55.933594 1.382812 C 22.566406 1.382812 1.835938 24.390625 1.835938 61.429688 C 1.835938 98.417969 22.597656 121.394531 56.011719 121.394531 C 82.265625 121.394531 102.367188 106.304688 106.132812 83.789062 C 106.265625 82.996094 105.644531 82.265625 104.839844 82.261719 Z M 85.476562 82.261719 " fill-opacity="1" fill-rule="nonzero"/></g><g clip-path="url(#33987d20bf)"><path fill="#ffffff" d="M 222.238281 2.699219 C 221.730469 1.980469 220.90625 1.554688 220.027344 1.554688 L 199.898438 1.554688 C 198.746094 1.554688 197.71875 2.28125 197.335938 3.375 L 168.503906 85.867188 L 168.414062 85.867188 L 139.582031 3.375 C 139.199219 2.28125 138.171875 1.554688 137.019531 1.554688 L 116.894531 1.554688 C 116.011719 1.554688 115.1875 1.980469 114.679688 2.699219 C 114.171875 3.417969 114.039062 4.34375 114.332031 5.175781 L 154.257812 119.40625 C 154.640625 120.496094 155.664062 121.222656 156.820312 121.222656 L 180.101562 121.222656 C 181.253906 121.222656 182.277344 120.496094 182.660156 119.40625 L 222.589844 5.175781 C 222.878906 4.34375 222.746094 3.417969 222.238281 2.699219 Z M 222.238281 2.699219 " fill-opacity="1" fill-rule="nonzero"/></g></svg>