<svg width="512" height="92" xmlns="http://www.w3.org/2000/svg" preserveAspectRatio="xMidYMid" version="1.1">
 <title>SvelteKit</title>

 <g>
  <title>Layer 1</title>
  <path id="svg_2" fill="#b7b7bc" d="m428.99041,70.19066l-13.73023,-25.50976l-8.64367,10.45533l0,15.05443l-7.24831,0l0,-48.78991l7.24831,0l0,23.62857l18.81927,-23.62857l8.36394,0l-13.65908,17.14665l17.35439,31.64326l-8.50462,0zm24.18476,0l0,-48.78991l7.2483,0l0,48.78991l-7.2483,0zm45.02507,-41.81969l0,41.81969l-7.24913,0l0,-41.81969l-13.79976,0l0,-6.97022l34.84865,0l0,6.97022l-13.79976,0z"/>
  <path id="svg_3" fill="#ffffff" d="m122.20419,71.02656c-3.97465,0.10001 -7.88648,-1.00548 -11.22089,-3.17103c-3.1153,-2.05461 -5.42887,-5.11848 -6.55227,-8.6772l6.83036,-2.50934c0.94741,2.18475 2.49437,4.05641 4.46169,5.3982c1.99729,1.33831 4.35705,2.03174 6.76084,1.9867c2.31068,0.12069 4.59095,-0.56958 6.44676,-1.95153c1.63685,-1.37471 2.5283,-3.44172 2.40465,-5.57569c0.00925,-0.9807 -0.218,-1.94919 -0.66251,-2.82342c-0.38651,-0.78207 -0.89199,-1.49945 -1.49841,-2.12656c-0.76678,-0.69837 -1.63661,-1.27439 -2.57886,-1.7078c-1.16252,-0.57962 -2.12684,-1.02102 -2.89295,-1.32419c-0.76611,-0.30317 -1.89291,-0.70967 -3.38041,-1.2195c-1.8583,-0.65051 -3.25201,-1.16144 -4.18116,-1.53277c-1.25862,-0.53573 -2.48098,-1.15292 -3.65932,-1.84765c-1.26829,-0.67273 -2.42128,-1.54327 -3.41559,-2.57887c-0.8603,-1.0105 -1.55413,-2.15161 -2.0554,-3.38042c-1.97564,-4.80408 -0.65814,-10.3333 3.27163,-13.73024c2.78798,-2.46245 6.57463,-3.69395 11.35994,-3.69449c3.9963,0 7.28402,0.8828 9.86317,2.64839c2.50342,1.66469 4.34141,4.15703 5.19208,7.04056l-6.69049,2.22962c-0.6722,-1.51001 -1.80742,-2.76697 -3.24138,-3.58899c-1.73414,-0.96252 -3.69835,-1.43286 -5.68038,-1.36018c-1.9437,-0.11131 -3.86907,0.42831 -5.47181,1.53358c-1.32812,1.02978 -2.06955,2.64333 -1.98588,4.32183c0.01179,1.28235 0.56923,2.49898 1.53276,3.34525c0.92614,0.9121 2.01321,1.64476 3.2062,2.16092c1.11672,0.46457 2.81307,1.09163 5.08903,1.88119c1.39263,0.51201 2.42619,0.89533 3.1007,1.14998c0.6745,0.25464 1.66199,0.68431 2.96246,1.28902c1.04263,0.46112 2.04504,1.00828 2.99682,1.63582c0.8523,0.61281 1.66704,1.27624 2.43983,1.9867c0.84041,0.72863 1.5584,1.58746 2.12656,2.5437c0.54134,0.99162 0.96228,2.04437 1.25385,3.13586c0.35595,1.28246 0.53212,2.60813 0.52377,3.93905c0,4.55412 -1.55706,8.1202 -4.67057,10.69825c-3.1135,2.57805 -7.10844,3.8698 -11.98482,3.87525zm44.67665,-0.8359l-16.72788,-48.78991l7.80694,0l11.08185,34.01357c0.61233,1.82953 1.12428,3.69113 1.53358,5.5765c0.40776,-1.88574 0.91974,-3.74744 1.53358,-5.5765l10.94199,-34.01357l7.7366,0l-16.65835,48.78991l-7.24831,0zm38.68219,0l0,-48.78991l30.24954,0l0,6.83118l-23.00042,0l0,13.38181l14.84587,0l0,6.83117l-14.84587,0l0,14.91457l24.53727,0l0,6.83118l-31.78639,0zm50.25233,0l0,-48.78991l7.24994,0l0,41.81969l23.83632,0l0,6.97022l-31.08626,0zm58.40688,-41.81969l0,41.81969l-7.24913,0l0,-41.81969l-13.79976,0l0,-6.97022l34.84947,0l0,6.97022l-13.80058,0zm28.78303,41.81969l0,-48.78991l30.24955,0l0,6.83118l-22.99796,0l0,13.38181l14.84504,0l0,6.83117l-14.84504,0l0,14.91457l24.53727,0l0,6.83118l-31.78886,0z"/>
  <g id="svg_4">
   <path id="svg_5" fill="#FF3E00" d="m71.36624,12.12157c-8.50625,-12.17457 -25.30692,-15.78564 -37.45369,-8.04413l-21.3327,13.59692c-5.8276,3.66585 -9.84154,9.61682 -11.05731,16.39335c-1.01762,5.64482 -0.12335,11.4678 2.54124,16.54712c-1.82642,2.76989 -3.07186,5.88154 -3.66096,9.14667c-1.22792,6.90649 0.37798,14.01645 4.45515,19.7247c8.50625,12.17621 25.30774,15.78564 37.45287,8.04413l21.33352,-13.59692c5.82768,-3.66577 9.84163,-9.61679 11.05731,-16.39335c1.01711,-5.645 0.12317,-11.46799 -2.54042,-16.54793c1.82547,-2.76992 3.07033,-5.88122 3.65932,-9.14586c1.22887,-6.90651 -0.37712,-14.01684 -4.45515,-19.7247"/>
   <path id="svg_6" fill="#FFFFFF" d="m31.82852,80.63209c-6.87649,1.78745 -14.13792,-0.90428 -18.18784,-6.74203c-2.45145,-3.43214 -3.41727,-7.70698 -2.67947,-11.85968c0.1236,-0.67485 0.29387,-1.34031 0.50955,-1.99161l0.4016,-1.22686l1.09354,0.80237c2.52317,1.8552 5.34461,3.26592 8.34267,4.17133l0.79256,0.24047l-0.0728,0.79174c-0.0971,1.12575 0.20774,2.2495 0.86044,3.17185c1.21949,1.75991 3.40783,2.57156 5.47999,2.0325c0.46284,-0.12308 0.90415,-0.31615 1.30866,-0.57254l21.33434,-13.601c1.05532,-0.66467 1.78254,-1.74244 2.00387,-2.96983c0.22104,-1.25185 -0.07013,-2.54001 -0.80809,-3.57508c-1.21967,-1.75974 -3.40753,-2.57186 -5.47999,-2.03414c-0.46288,0.12294 -0.90421,0.31602 -1.30865,0.57253l-8.14147,5.18964c-1.33962,0.85127 -2.80147,1.49283 -4.33492,1.90245c-6.87649,1.78745 -14.13792,-0.90428 -18.18784,-6.74202c-2.45217,-3.43183 -3.41833,-7.70687 -2.68029,-11.85968c0.73324,-4.07543 3.14959,-7.65334 6.65614,-9.85581l21.33189,-13.5961c1.33925,-0.85254 2.80117,-1.49496 4.33492,-1.90491c6.8765,-1.7877 14.13807,0.90408 18.18784,6.74203c2.45174,3.43202 3.41785,7.70687 2.68029,11.85968c-0.12532,0.67586 -0.29666,1.34237 -0.51283,1.99488l-0.40159,1.22686l-1.09273,-0.80073c-2.52303,-1.85544 -5.34451,-3.26618 -8.34267,-4.17134l-0.79338,-0.24046l0.07362,-0.79174c0.09603,-1.12565 -0.20871,-2.24904 -0.86044,-3.17185c-1.21889,-1.75825 -3.40502,-2.56968 -5.4759,-2.0325c-0.46286,0.123 -0.90418,0.31608 -1.30866,0.57253l-21.33679,13.5961c-1.05519,0.66428 -1.78219,1.74187 -2.00306,2.96901c-0.22211,1.2519 0.06851,2.54053 0.80646,3.5759c1.21982,1.75954 3.40754,2.57161 5.47999,2.03414c0.46273,-0.12338 0.90399,-0.31643 1.30865,-0.57253l8.13983,-5.18718c1.33911,-0.85264 2.80108,-1.4948 4.33492,-1.9041c6.87436,-1.78691 14.13365,0.903 18.18375,6.73794c2.45217,3.43183 3.41833,7.70686 2.68029,11.85968c-0.7316,4.07518 -3.14535,7.65394 -6.6496,9.85907l-21.33188,13.59611c-1.33919,0.85267 -2.80113,1.49509 -4.33492,1.90491"/>
  </g>
 </g>
</svg>